# xmcd
#
# Track frame offsets: 
#        150
#        16276
#        35987
#        56754
#        76855
#        97094
#        116321
#        140141
#        171683
#        196926
#        215209
#        240247
#        257115
#        277564
#        296551
#        314279
#        330475
#
# Disc length: 4652 seconds
#
# Revision: 8
# Processed by: cddbd v1.5.2PL0 Copyright (c) Steve Scherf et al.
# Submitted via: ExactAudioCopyFreeDBPlugin 1.0
#
DISCID=fc122a11
DTITLE=Xavier Naidoo - Danke fürs Zuhören
DYEAR=2012
DGENRE=Soul
TTITLE0=20.000 Meilen
TTITLE1=Nicht von dieser Welt
TTITLE2=Führ mich ans Licht
TTITLE3=Sie sieht mich nicht
TTITLE4=Seine Straßen
TTITLE5=Wo willst du hin?
TTITLE6=Bevor du gehst
TTITLE7=Abschied nehmen
TTITLE8=Ich kenne nichts (das so schön ist wie du)
TTITLE9=Dieser Weg
TTITLE10=Zeilen aus Gold
TTITLE11=Was wir alleine nicht schaffen
TTITLE12=Alles kann besser werden
TTITLE13=Bitte hör nicht auf zu träumen
TTITLE14=Ich brauche dich
TTITLE15=Ich kenne nichts (das so schön ist wie du) (Banks and Rawdrigue
TTITLE15=z Remix)
TTITLE16=Deutschland ist noch nicht verloren
EXTD=
EXTT0=
EXTT1=
EXTT2=
EXTT3=
EXTT4=
EXTT5=
EXTT6=
EXTT7=
EXTT8=
EXTT9=
EXTT10=
EXTT11=
EXTT12=
EXTT13=
EXTT14=
EXTT15=
EXTT16=
PLAYORDER=
